<svg xmlns="http://www.w3.org/2000/svg" width="16" height="16" viewBox="0 0 16 16">
	<path fill="#2a2a2a" d="M8 0c-4.418 0-8 3.582-8 8s3.582 8 8 8 8-3.582 8-8-3.582-8-8-8zM12.751 12.751c-0.617 0.617-1.336 1.102-2.136 1.44-0.203 0.086-0.41 0.161-0.619 0.226v-1.199c0-0.63-0.216-1.094-0.648-1.391 0.271-0.026 0.52-0.063 0.746-0.109s0.466-0.115 0.719-0.203 0.479-0.194 0.68-0.316 0.393-0.281 0.578-0.477 0.34-0.417 0.465-0.664 0.224-0.544 0.297-0.891 0.109-0.728 0.109-1.145c0-0.807-0.263-1.495-0.789-2.063 0.24-0.625 0.214-1.305-0.078-2.039l-0.195-0.023c-0.135-0.016-0.379 0.042-0.73 0.172s-0.746 0.344-1.184 0.641c-0.62-0.172-1.263-0.258-1.93-0.258-0.672 0-1.313 0.086-1.922 0.258-0.276-0.188-0.538-0.342-0.785-0.465-0.247-0.122-0.445-0.206-0.594-0.25s-0.286-0.072-0.414-0.082-0.21-0.013-0.246-0.008-0.063 0.010-0.078 0.016c-0.292 0.74-0.318 1.419-0.078 2.039-0.526 0.568-0.789 1.255-0.789 2.1 0 0.4 0 0.8 0.1 1.145s0.172 0.6 0.3 0.9 0.3 0.5 0.5 0.7 0.4 0.4 0.6 0.5 0.4 0.2 0.7 0.3 0.5 0.2 0.7 0.2 0.5 0.1 0.7 0.109c-0.427 0.292-0.641 0.755-0.641 1.391v1.222c-0.236-0.070-0.468-0.153-0.697-0.25-0.8-0.338-1.519-0.823-2.136-1.44-0.617-0.617-1.102-1.336-1.44-2.136-0.35-0.827-0.527-1.707-0.527-2.615s0.177-1.787 0.527-2.615c0.338-0.8 0.823-1.519 1.44-2.136s1.336-1.102 2.136-1.44c0.827-0.35 1.707-0.527 2.615-0.527s1.787 0.2 2.6 0.527c0.8 0.3 1.5 0.8 2.1 1.4 0.6 0.6 1.1 1.3 1.4 2.1 0.3 0.8 0.5 1.7 0.5 2.615s-0.177 1.787-0.527 2.615c-0.338 0.8-0.823 1.519-1.44 2.136z"/>
</svg>