<svg width="400" height="400" xmlns="http://www.w3.org/2000/svg">
    <path fill="#15395d" d="m200,0c110.457,0 200,89.543 200,200s-89.543,200 -200,200s-200,-89.543 -200,-200s89.543,-200 200,-200z"/>
    <path fill="#fff" d="m133.625,294.125l7.65601,-56.48401q34.53099,10.85901 55.39099,10.85901q8.125,0 12.383,-3.39999t4.25801,-7.617a6.449,6.449 0 0 0 -0.625,-2.85201a6.621,6.621 0 0 0 -2.22701,-2.422q-1.60001,-1.13301 -3.047,-1.953a26.112,26.112 0 0 0 -4.375,-1.8q-2.92999,-0.97699 -4.883,-1.562t-5.78101,-1.68001q-6.953,-1.95299 -10.82001,-3.16399t-10.937,-4.10001a59.709,59.709 0 0 1 -11.289,-5.81999a90.9,90.9 0 0 1 -9.64799,-7.96899a39.562,39.562 0 0 1 -8.437,-10.90001a68.638,68.638 0 0 1 -5.15601,-14.25801a74.151,74.151 0 0 1 -2.14799,-18.39999a83.125,83.125 0 0 1 1.953,-18.98399a54.81,54.81 0 0 1 5.11699,-13.98401a29.414,29.414 0 0 1 8.71101,-9.687a54.715,54.715 0 0 1 11.05499,-6.25a59.33,59.33 0 0 1 13.90601,-3.47701q8.39999,-1.211 15.625,-1.562t17.7,-0.35199q25.7,0 60.313,6.875l-7.03101,51.95299a153.42599,153.42599 0 0 0 -27.26599,-9.062a124.757,124.757 0 0 0 -29.06201,-3.672q-7.26599,0 -11.48401,2.3t-4.21899,6.52299a4.991,4.991 0 0 0 0.664,2.5a6.92,6.92 0 0 0 2.37801,2.276q1.71899,1.09399 3.28099,1.914a37.128,37.128 0 0 0 4.688,1.914q3.125,1.09399 5.2,1.71899l6.211,1.875q19.21901,5.78101 28.98401,10.46899q25.625,12.26601 32.65601,33.59401a59.975,59.975 0 0 1 2.81299,18.75a81.453,81.453 0 0 1 -2.07001,19.063a55.765,55.765 0 0 1 -5.69998,14.883a43.9,43.9 0 0 1 -9.10001,11.09399a52.009,52.009 0 0 1 -11.8,7.85202a71.3,71.3 0 0 1 -14.3,4.961a116.727,116.727 0 0 1 -16.06299,2.69299q-8.086,0.78101 -17.539,0.78101a639.93701,639.93701 0 0 1 -65.936,-3.43701z"/>
 </svg>
