<svg xmlns="http://www.w3.org/2000/svg" width="16" height="16" viewBox="0 0 16 16">
	<path fill="#00acee" d="M16 3.038c-0.589 0.261-1.221 0.438-1.885 0.5 0.678-0.406 1.198-1.050 1.443-1.816-0.634 0.376-1.337 0.649-2.085 0.797-0.599-0.638-1.452-1.037-2.396-1.037-1.813 0-3.283 1.47-3.283 3.3 0 0.3 0 0.5 0.1 0.748-2.728-0.137-5.147-1.444-6.766-3.43-0.283 0.485-0.444 1.049-0.444 1.6 0 1.1 0.6 2.1 1.5 2.732-0.538-0.017-1.044-0.165-1.487-0.411-0 0.014-0 0.027-0 0 0 1.6 1.1 2.9 2.6 3.219-0.275 0.075-0.565 0.115-0.865 0.115-0.212 0-0.417-0.021-0.618-0.059 0.4 1.3 1.6 2.3 3.1 2.28-1.123 0.88-2.539 1.405-4.077 1.405-0.265 0-0.526-0.016-0.783-0.046 1.5 0.9 3.2 1.5 5 1.5 6 0 9.34-5.002 9.34-9.34 0-0.142-0.003-0.284-0.010-0.425 0.642-0.463 1.198-1.041 1.638-1.699z"/>
</svg>